<svg width="84" height="83" viewBox="0 0 84 83" fill="none" xmlns="http://www.w3.org/2000/svg">
<g clip-path="url(#clip0_1098_6877)">
<path d="M42 0C19.0803 0 0.5 18.5803 0.5 41.5C0.5 64.421 19.0803 83 42 83C64.921 83 83.5 64.421 83.5 41.5C83.5 18.5803 64.921 0 42 0ZM42 77.8942C21.9775 77.8942 5.6875 61.5225 5.6875 41.4998C5.6875 21.4774 21.9775 5.18734 42 5.18734C62.0225 5.18734 78.3125 21.4775 78.3125 41.4998C78.3125 61.5222 62.0225 77.8942 42 77.8942ZM58.5624 26.3149L34.2135 50.8167L23.2484 39.8517C22.2355 38.8388 20.5937 38.8388 19.5795 39.8517C18.5667 40.8645 18.5667 42.5064 19.5795 43.5192L32.4173 56.3583C33.4302 57.3699 35.072 57.3699 36.0862 56.3583C36.2029 56.2416 36.3028 56.1144 36.3936 55.9822L62.2325 29.9837C63.2441 28.9708 63.2441 27.329 62.2325 26.3149C61.2184 25.302 59.5765 25.302 58.5624 26.3149Z" fill="#B889D8"/>
</g>
<defs>
<clipPath id="clip0_1098_6877">
<rect width="83" height="83" fill="white" transform="translate(0.5)"/>
</clipPath>
</defs>
</svg>
