<svg width="81" height="19" viewBox="0 0 81 19" fill="none" xmlns="http://www.w3.org/2000/svg">
<g clip-path="url(#clip0_466_8291)">
<path d="M14.1114 1.53809L12.8136 12.9605L11.4292 1.53809H7.70888L6.41108 12.9605L5.45936 4.39368H2.43115L4.50764 18.412H8.228L9.5258 8.80687L10.8236 18.412H14.544L17.0531 1.53809H14.1114Z" fill="white"/>
<path d="M25.186 18.412H18.3509V13.2201H17.4857V10.451H18.3509V1.53809H25.186V4.30715H21.6387V10.451H24.4938V13.2201H21.6387V15.7295H25.186V18.412Z" fill="white"/>
<path d="M35.2223 12.7874C35.2223 17.2871 32.1941 18.412 29.4254 18.412H26.8298V1.53809H29.4254C32.4536 1.53809 34.7032 3.18222 34.7032 5.77821C34.7032 7.42234 33.9245 8.3742 33.5784 8.72034C34.184 9.23953 35.2223 10.7106 35.2223 12.7874ZM31.4154 5.77821C31.4154 4.91288 30.8963 4.30715 30.0311 4.30715V7.3358C30.8963 7.3358 31.4154 6.64354 31.4154 5.77821ZM31.848 12.7874C31.848 11.3163 31.0693 10.2779 30.8098 10.0183C30.5502 10.1049 30.2906 10.1049 30.0311 10.1049V15.643C31.1558 15.7295 31.848 14.7777 31.848 12.7874Z" fill="white"/>
<path d="M43.1821 13.8252C43.1821 16.8539 41.1921 18.498 38.51 18.498C37.5583 18.498 36.6066 18.325 35.8279 17.8058L37.0392 15.2963C37.4718 15.5559 37.9909 15.6424 38.51 15.6424C38.683 15.6424 38.8561 15.6424 39.1156 15.5559C39.2887 15.4694 39.4617 15.3828 39.6348 15.2098C39.8078 15.0367 39.8943 14.9502 39.9808 14.6906C40.0674 14.5175 40.0674 14.3444 40.0674 14.0848C40.0674 12.7003 39.3752 11.6619 38.1639 10.1909C36.6931 8.37366 36.0874 7.07566 36.0874 5.51806C36.0874 2.92207 37.7313 1.19141 40.4135 1.19141C41.1921 1.19141 41.8843 1.36447 42.5765 1.71061L41.4517 4.047C41.1056 3.96047 40.7595 3.87393 40.5 3.87393C40.3269 3.87393 40.2404 3.87393 40.0674 3.96047C39.8943 4.047 39.8078 4.13353 39.7213 4.22007C39.6348 4.3066 39.5483 4.47967 39.4617 4.5662C39.3752 4.73927 39.3752 4.8258 39.3752 4.99887C39.3752 6.1238 40.0674 6.98913 41.2787 8.54672C42.5765 10.7101 43.1821 12.008 43.1821 13.8252Z" fill="white"/>
<path d="M44.653 7.16211V18.4114H47.9407V7.16211H44.653Z" fill="white"/>
<path d="M58.5827 17.6329C57.977 18.0655 56.8523 18.5847 55.2949 18.5847C53.1319 18.5847 49.6711 17.4598 49.6711 10.018C49.6711 2.74917 52.9589 1.45117 55.0353 1.45117C55.641 1.45117 56.3331 1.5377 56.9388 1.71077V4.3933C56.5062 4.30676 55.9871 4.22023 55.5545 4.22023C54.6893 4.22023 52.8723 4.82596 52.8723 10.018C52.8723 15.1234 54.3432 15.8157 55.2949 15.8157C55.3814 15.8157 55.3814 15.8157 55.4679 15.8157V13.0466C55.4679 11.5755 54.9488 11.4025 54.6893 11.4025C54.5162 11.4025 54.3432 11.4025 54.2567 11.4025V8.71995C54.6027 8.63342 54.9488 8.63342 55.2949 8.63342C57.1983 8.63342 58.5827 10.1045 58.5827 13.3927V17.6329Z" fill="white"/>
<path d="M69.2247 18.412H65.937V13.2201H63.8605V18.412H60.5727V13.2201H59.7075V10.451H60.5727V1.53809H63.8605V10.451H65.937V1.53809H69.2247V18.412Z" fill="white"/>
<path d="M70.3494 1.53809V4.30714H72.8585V18.4986H76.1463V1.53809H70.3494Z" fill="white"/>
<path d="M81.0779 2.92188H78.5688V5.69094H81.0779V2.92188Z" fill="white"/>
<path d="M3.29628 2.66223H0.354598L-0.0780029 -0.193359H2.9502L3.29628 2.66223Z" fill="white"/>
<path d="M49.0655 0.239258H45.7777V3.78711H49.0655V0.239258Z" fill="white"/>
</g>
<defs>
<clipPath id="clip0_466_8291">
<rect width="81" height="18.7627" fill="white"/>
</clipPath>
</defs>
</svg>
