<svg width="33" height="23" viewBox="0 0 33 23" fill="none" xmlns="http://www.w3.org/2000/svg">
<mask id="mask0_595_5377" style="mask-type:alpha" maskUnits="userSpaceOnUse" x="0" y="-1" width="33" height="25">
<path d="M32.3816 11.5176C30.9837 11.5176 29.6044 11.1975 28.349 10.5818C27.0936 9.96614 25.9954 9.07112 25.1383 7.96521C24.2813 6.85929 23.6881 5.57177 23.4041 4.20106C23.12 2.83036 23.1527 1.41276 23.4996 0.0566402" stroke="#1C1F27" stroke-width="2"/>
<path d="M32.3816 11.5175C30.9837 11.5175 29.6044 11.8376 28.349 12.4533C27.0936 13.069 25.9954 13.964 25.1383 15.0699C24.2813 16.1759 23.6881 17.4634 23.4041 18.8341C23.12 20.2048 23.1527 21.6224 23.4996 22.9785" stroke="#1C1F27" stroke-width="2"/>
<path d="M32.3815 11.5176H0.290771" stroke="#1C1F27" stroke-width="2"/>
</mask>
<g mask="url(#mask0_595_5377)">
<rect x="0.290771" y="0.0566406" width="32.0908" height="22.922" fill="#fff"/>
</g>
</svg>
