<svg width="65" height="23" viewBox="0 0 65 23" fill="none" xmlns="http://www.w3.org/2000/svg">
<mask id="mask0_460_8432" style="mask-type:alpha" maskUnits="userSpaceOnUse" x="0" y="-1" width="65" height="25">
<path d="M64.0908 11.461C62.693 11.461 61.3136 11.1409 60.0582 10.5252C58.8028 9.9095 57.7046 9.01448 56.8476 7.90857C55.9905 6.80265 55.3973 5.51513 55.1133 4.14442C54.8293 2.77372 54.8619 1.35612 55.2088 -3.88244e-07" stroke="#1C1F27" stroke-width="2"/>
<path d="M64.0908 11.4609C62.693 11.4609 61.3136 11.781 60.0582 12.3967C58.8028 13.0124 57.7046 13.9074 56.8476 15.0133C55.9905 16.1192 55.3973 17.4067 55.1133 18.7775C54.8293 20.1482 54.8619 21.5658 55.2088 22.9219" stroke="#1C1F27" stroke-width="2"/>
<path d="M63 11.4609H0" stroke="#1C1F27" stroke-width="2"/>
</mask>
<g mask="url(#mask0_460_8432)">
<rect x="2" width="62" height="23" fill="#1C1F27"/>
</g>
</svg>
